<svg width="32" height="33" viewBox="0 0 32 33" fill="none" xmlns="http://www.w3.org/2000/svg">
<path d="M16.002 7.39502C13.4345 7.39502 13.1122 7.40625 12.1038 7.45214C11.0974 7.49823 10.4104 7.65757 9.80924 7.89136C9.18744 8.13283 8.65999 8.45584 8.1345 8.98152C7.60862 9.50701 7.28561 10.0345 7.04335 10.6561C6.80897 11.2574 6.64943 11.9446 6.60413 12.9506C6.55903 13.9591 6.54721 14.2815 6.54721 16.849C6.54721 19.4166 6.55863 19.7378 6.60433 20.7463C6.65061 21.7527 6.80995 22.4397 7.04355 23.0408C7.28522 23.6626 7.60823 24.1901 8.13391 24.7156C8.6592 25.2414 9.18665 25.5652 9.80806 25.8067C10.4096 26.0405 11.0968 26.1998 12.103 26.2459C13.1114 26.2918 13.4335 26.3031 16.0008 26.3031C18.5686 26.3031 18.8898 26.2918 19.8983 26.2459C20.9047 26.1998 21.5925 26.0405 22.194 25.8067C22.8156 25.5652 23.3423 25.2414 23.8676 24.7156C24.3934 24.1901 24.7165 23.6626 24.9587 23.041C25.1911 22.4397 25.3507 21.7525 25.3979 20.7465C25.4432 19.738 25.455 19.4166 25.455 16.849C25.455 14.2815 25.4432 13.9593 25.3979 12.9508C25.3507 11.9444 25.1911 11.2574 24.9587 10.6563C24.7165 10.0345 24.3934 9.50701 23.8676 8.98152C23.3417 8.45564 22.8158 8.13263 22.1934 7.89136C21.5907 7.65757 20.9033 7.49823 19.8969 7.45214C18.8884 7.40625 18.5674 7.39502 15.9991 7.39502H16.002ZM15.1539 9.09871C15.4056 9.09832 15.6865 9.09871 16.002 9.09871C18.5262 9.09871 18.8254 9.10777 19.8222 9.15307C20.744 9.19522 21.2443 9.34924 21.5775 9.47865C22.0187 9.65 22.3333 9.85484 22.6639 10.1857C22.9948 10.5166 23.1997 10.8318 23.3714 11.2729C23.5008 11.6058 23.655 12.1061 23.697 13.0278C23.7423 14.0245 23.7521 14.3238 23.7521 16.8469C23.7521 19.3699 23.7423 19.6693 23.697 20.6659C23.6548 21.5877 23.5008 22.0879 23.3714 22.4208C23.2001 22.862 22.9948 23.1761 22.6639 23.5068C22.3331 23.8377 22.0189 24.0426 21.5775 24.2139C21.2447 24.3439 20.744 24.4975 19.8222 24.5397C18.8256 24.585 18.5262 24.5948 16.002 24.5948C13.4776 24.5948 13.1784 24.585 12.1818 24.5397C11.26 24.4971 10.7598 24.3431 10.4263 24.2137C9.98512 24.0424 9.66999 23.8375 9.3391 23.5066C9.00821 23.1757 8.80337 22.8614 8.63162 22.42C8.50222 22.0872 8.348 21.5869 8.30605 20.6651C8.26075 19.6685 8.25169 19.3691 8.25169 16.8445C8.25169 14.3199 8.26075 14.0221 8.30605 13.0255C8.3482 12.1037 8.50222 11.6034 8.63162 11.2702C8.80298 10.829 9.00821 10.5139 9.3391 10.183C9.66999 9.85208 9.98512 9.64724 10.4263 9.47549C10.7596 9.3455 11.26 9.19187 12.1818 9.14953C13.0539 9.11014 13.3919 9.09832 15.1539 9.09635V9.09871ZM21.0485 10.6685C20.4222 10.6685 19.914 11.176 19.914 11.8026C19.914 12.4289 20.4222 12.937 21.0485 12.937C21.6748 12.937 22.183 12.4289 22.183 11.8026C22.183 11.1762 21.6748 10.6681 21.0485 10.6681V10.6685ZM16.002 11.994C13.3208 11.994 11.147 14.1678 11.147 16.849C11.147 19.5302 13.3208 21.7031 16.002 21.7031C18.6832 21.7031 20.8563 19.5302 20.8563 16.849C20.8563 14.1678 18.683 11.994 16.0018 11.994H16.002ZM16.002 13.6977C17.7423 13.6977 19.1534 15.1085 19.1534 16.849C19.1534 18.5894 17.7423 20.0004 16.002 20.0004C14.2615 20.0004 12.8507 18.5894 12.8507 16.849C12.8507 15.1085 14.2615 13.6977 16.002 13.6977Z" fill="#EBECEC" fill-opacity="0.8"/>
</svg>
