<svg width="20" height="21" viewBox="0 0 20 21" fill="none" xmlns="http://www.w3.org/2000/svg">
<path d="M6.49682 10.0782C7.59204 8.98297 9.50215 8.98297 10.5974 10.0782L11.2808 10.7616L12.6476 9.39477L11.9642 8.71134C11.0527 7.79882 9.83854 7.2952 8.54709 7.2952C7.25564 7.2952 6.04153 7.79882 5.12997 8.71134L3.07873 10.7616C2.17423 11.669 1.66633 12.898 1.66633 14.1792C1.66633 15.4604 2.17423 16.6894 3.07873 17.5968C3.52714 18.0459 4.05985 18.4019 4.64627 18.6444C5.2327 18.8869 5.86126 19.0112 6.49585 19.0101C7.13062 19.0114 7.75938 18.8872 8.34598 18.6447C8.93258 18.4021 9.46545 18.046 9.91394 17.5968L10.5974 16.9134L9.23052 15.5466L8.54709 16.23C8.00235 16.7723 7.26499 17.0767 6.49634 17.0767C5.72768 17.0767 4.99032 16.7723 4.44558 16.23C3.90281 15.6855 3.59803 14.948 3.59803 14.1792C3.59803 13.4104 3.90281 12.673 4.44558 12.1285L6.49682 10.0782Z" fill="#EBECEC" fill-opacity="0.8"/>
<path d="M9.91434 3.92727L9.23092 4.61069L10.5978 5.97754L11.2812 5.29412C11.8259 4.75182 12.5633 4.44736 13.3319 4.44736C14.1006 4.44736 14.838 4.75182 15.3827 5.29412C15.9255 5.83861 16.2303 6.57606 16.2303 7.34487C16.2303 8.11368 15.9255 8.85114 15.3827 9.39563L13.3315 11.4459C12.2362 12.5411 10.3261 12.5411 9.23092 11.4459L8.5475 10.7625L7.18065 12.1293L7.86407 12.8127C8.77563 13.7253 9.98974 14.2289 11.2812 14.2289C12.5726 14.2289 13.7868 13.7253 14.6983 12.8127L16.7495 10.7625C17.6541 9.85506 18.162 8.62609 18.162 7.34487C18.162 6.06365 17.6541 4.83468 16.7495 3.92727C15.8424 3.02229 14.6133 2.51407 13.3319 2.51407C12.0506 2.51407 10.8215 3.02229 9.91434 3.92727Z" fill="#EBECEC" fill-opacity="0.8"/>
</svg>
