<svg width="20" height="20" viewBox="0 0 20 20" fill="none" xmlns="http://www.w3.org/2000/svg">
<g clip-path="url(#clip0_134_38)">
<path d="M0.447891 1.66224C0.447891 0.906304 1.07605 0.293671 1.8511 0.293671H18.1522C18.9272 0.293671 19.5554 0.906304 19.5554 1.66224V18.0326C19.5554 18.7885 18.9272 19.4011 18.1522 19.4011H1.8511C1.07605 19.4011 0.447891 18.7885 0.447891 18.0326V1.66224ZM6.3509 16.289V7.66079H3.48359V16.289H6.3509ZM4.91784 6.4821C5.9174 6.4821 6.53959 5.82051 6.53959 4.99172C6.52168 4.14502 5.9186 3.50134 4.93695 3.50134C3.95531 3.50134 3.31401 4.14621 3.31401 4.99172C3.31401 5.82051 3.9362 6.4821 4.89874 6.4821H4.91784ZM10.7791 16.289V11.4703C10.7791 11.2124 10.7982 10.9544 10.8746 10.7705C11.0812 10.2558 11.5529 9.72201 12.3459 9.72201C13.3836 9.72201 13.798 10.5126 13.798 11.6734V16.289H16.6654V11.3402C16.6654 8.68901 15.2514 7.45658 13.3645 7.45658C11.8431 7.45658 11.1612 8.29253 10.7791 8.88128V8.91114H10.76C10.7663 8.90117 10.7727 8.89122 10.7791 8.88128V7.66079H7.91294C7.94877 8.47047 7.91294 16.289 7.91294 16.289H10.7791Z" fill="#EBECEC" fill-opacity="0.8"/>
</g>
<defs>
<clipPath id="clip0_134_38">
<rect width="19.1075" height="19.1075" fill="white" transform="translate(0.445938 0.293671)"/>
</clipPath>
</defs>
</svg>
