<svg width="41" height="28" viewBox="0 0 41 28" fill="none" xmlns="http://www.w3.org/2000/svg">
<path d="M1.60366 14.1549C1.65123 14.0598 1.72918 14.0598 1.77676 14.1549L1.97183 14.5444C2.0194 14.6394 2.1455 14.7298 2.25192 14.7451L2.68808 14.8074C2.7945 14.8227 2.81858 14.8957 2.74158 14.9697L2.42596 15.2729C2.34896 15.3469 2.30082 15.493 2.31897 15.5976L2.39348 16.0256C2.41163 16.1301 2.34858 16.1753 2.25344 16.1259L1.8635 15.9239C1.76816 15.8745 1.61226 15.8745 1.51711 15.9239L1.12717 16.1259C1.03184 16.1753 0.968791 16.1301 0.986936 16.0256L1.06145 15.5976C1.0796 15.493 1.03145 15.3469 0.954459 15.2729L0.638834 14.9697C0.561841 14.8957 0.585914 14.8227 0.692333 14.8074L1.12851 14.7451C1.23493 14.7298 1.36102 14.6394 1.4086 14.5444L1.60366 14.1549Z" fill="#01A059"/>
<path d="M32.9005 5.60806C32.9481 5.51297 33.0261 5.51297 33.0736 5.60806L33.2687 5.99748C33.3163 6.09257 33.4424 6.18296 33.5488 6.19821L33.985 6.26054C34.0914 6.2758 34.1154 6.34886 34.0385 6.42286L33.7228 6.72603C33.6458 6.80004 33.5977 6.94616 33.6158 7.05067L33.6904 7.47869C33.7085 7.5832 33.6455 7.6284 33.5501 7.57906L33.1602 7.37701C33.065 7.32767 32.9091 7.32767 32.8138 7.37701L32.4239 7.57906C32.3287 7.6284 32.2657 7.5832 32.2838 7.47869L32.3583 7.05067C32.3765 6.94616 32.3283 6.80004 32.2513 6.72603L31.9357 6.42286C31.8587 6.34886 31.8828 6.2758 31.9892 6.26054L32.4254 6.19821C32.5318 6.18296 32.6579 6.09257 32.7055 5.99748L32.9005 5.60806Z" fill="url(#paint0_linear_1_521)"/>
<path d="M16.9895 6.15507L16.0879 7.04058L15.1863 6.15507C14.8824 5.85641 14.8235 5.39732 15.0574 5.13511C15.291 4.87298 15.6724 4.84606 15.906 5.0756L16.0879 5.21589L16.2698 5.0756C16.5035 4.84606 16.8848 4.87298 17.1185 5.13511C17.3521 5.39732 17.2935 5.85641 16.9895 6.15507Z" fill="#1B3C37"/>
<path d="M36.6643 18.5047C36.6257 18.5047 36.5878 18.4934 36.5557 18.4722C36.5235 18.451 36.4984 18.4209 36.4836 18.3856C36.4688 18.3504 36.465 18.3117 36.4725 18.2743C36.4801 18.2369 36.4987 18.2025 36.526 18.1755C36.6599 18.0436 36.7942 18.0304 36.883 18.0217C36.9476 18.0154 36.9671 18.0135 37.0021 17.9789C37.0374 17.9442 37.0393 17.9249 37.0458 17.8612C37.0548 17.7735 37.0682 17.6411 37.2022 17.5091C37.3361 17.3771 37.4704 17.3638 37.5593 17.355C37.624 17.3486 37.6436 17.3467 37.6789 17.312C37.697 17.2941 37.7186 17.2799 37.7423 17.2702C37.766 17.2605 37.7915 17.2555 37.8172 17.2555C37.8429 17.2555 37.8683 17.2605 37.892 17.2702C37.9158 17.2799 37.9373 17.2941 37.9555 17.312C37.9737 17.3299 37.9881 17.3511 37.9979 17.3745C38.0077 17.3979 38.0128 17.423 38.0128 17.4483C38.0128 17.4736 38.0077 17.4987 37.9979 17.5221C37.9881 17.5455 37.9737 17.5667 37.9555 17.5846C37.8216 17.7166 37.6873 17.7299 37.5983 17.7388C37.5336 17.7452 37.5141 17.747 37.4788 17.7818C37.4436 17.8165 37.4417 17.8358 37.4352 17.8996C37.4262 17.9872 37.4127 18.1196 37.2788 18.2516C37.1449 18.3835 37.0106 18.3967 36.9218 18.4055C36.8572 18.4118 36.8377 18.4136 36.8027 18.4482C36.7845 18.4661 36.763 18.4804 36.7392 18.4901C36.7155 18.4997 36.69 18.5047 36.6643 18.5047Z" fill="#01A059"/>
<path d="M1.73582 21.8554C1.71012 21.8555 1.68467 21.8505 1.66093 21.8408C1.63719 21.8311 1.61563 21.8169 1.59749 21.799C1.46365 21.667 1.45028 21.5347 1.4414 21.4471C1.435 21.3835 1.43308 21.3642 1.39802 21.3297C1.36278 21.2949 1.3432 21.2931 1.27853 21.2867C1.18959 21.2778 1.05527 21.2645 0.921347 21.1325C0.787422 21.0005 0.773952 20.8682 0.764973 20.7805C0.758478 20.7168 0.756561 20.6975 0.721317 20.6627C0.684649 20.6266 0.664055 20.5775 0.664063 20.5264C0.66407 20.4753 0.684678 20.4262 0.721356 20.3901C0.758034 20.3539 0.807778 20.3336 0.859649 20.3336C0.91152 20.3336 0.96127 20.3539 0.997959 20.39C1.13189 20.522 1.14536 20.6544 1.15433 20.7421C1.16083 20.8058 1.16275 20.8251 1.19799 20.8599C1.23325 20.8946 1.25283 20.8965 1.3175 20.9029C1.40644 20.9117 1.54074 20.925 1.67468 21.057C1.80851 21.1889 1.82188 21.3213 1.83077 21.4089C1.83717 21.4725 1.83908 21.4917 1.87413 21.5263C1.90149 21.5532 1.92012 21.5876 1.92767 21.625C1.93521 21.6624 1.93134 21.7012 1.91654 21.7364C1.90173 21.7716 1.87666 21.8017 1.84449 21.8229C1.81233 21.8441 1.77451 21.8554 1.73582 21.8554Z" fill="#1B3C37"/>
<path d="M11.6135 3.47701C11.5764 3.47703 11.54 3.46658 11.5087 3.44688C11.3489 3.3467 11.3068 3.22035 11.2789 3.13674C11.2585 3.07601 11.2524 3.05765 11.2107 3.03147C11.1686 3.00511 11.1492 3.00718 11.0844 3.015C10.9957 3.02517 10.8617 3.04117 10.7019 2.94099C10.5421 2.84082 10.4998 2.71446 10.4718 2.63085C10.4513 2.56984 10.4452 2.55148 10.4031 2.52511C10.3814 2.51151 10.3627 2.49384 10.3479 2.4731C10.3332 2.45235 10.3227 2.42895 10.3172 2.40423C10.3116 2.3795 10.311 2.35394 10.3155 2.329C10.3199 2.30405 10.3293 2.28022 10.3431 2.25885C10.3569 2.23749 10.3748 2.21901 10.3959 2.20447C10.4169 2.18994 10.4407 2.17963 10.4658 2.17414C10.4908 2.16865 10.5168 2.16808 10.5421 2.17247C10.5674 2.17686 10.5916 2.18612 10.6133 2.19972C10.773 2.3 10.8153 2.42635 10.8433 2.50996C10.8637 2.57088 10.8698 2.58924 10.9119 2.6156C10.9538 2.64187 10.9732 2.63952 11.0381 2.63207C11.1267 2.62153 11.2607 2.6059 11.4207 2.70608C11.5805 2.80626 11.6226 2.93261 11.6505 3.01622C11.6708 3.07695 11.677 3.09531 11.7187 3.12148C11.7544 3.14389 11.7818 3.17713 11.7968 3.21621C11.8117 3.25528 11.8134 3.29807 11.8015 3.33816C11.7897 3.37824 11.7649 3.41345 11.731 3.43849C11.6971 3.46353 11.6559 3.47704 11.6135 3.47701Z" fill="#01A059"/>
<path d="M27.1707 1.89742L28.0316 5.06379C28.0581 5.16258 28.0438 5.26769 27.992 5.35618C27.9401 5.44467 27.8549 5.50937 27.7548 5.53616L24.7312 6.33467C24.631 6.36079 24.5243 6.34677 24.4345 6.29567C24.3447 6.24456 24.2791 6.16053 24.2519 6.06191L23.1381 1.96437C23.1115 1.86558 23.1257 1.76045 23.1776 1.67194C23.2294 1.58343 23.3147 1.51874 23.4147 1.49201L25.4934 0.942993L27.1707 1.89742Z" fill="url(#paint1_linear_1_521)"/>
<path d="M25.4922 0.942993L25.8467 2.24682L27.1695 1.89742L25.4922 0.942993Z" fill="url(#paint2_linear_1_521)"/>
<path d="M26.5301 3.2751L25.2073 3.62442C25.1824 3.63098 25.1566 3.63266 25.1311 3.62936C25.1056 3.62607 25.081 3.61785 25.0588 3.60519C25.0365 3.59253 25.017 3.57568 25.0014 3.55559C24.9857 3.5355 24.9743 3.51256 24.9676 3.4881C24.961 3.46364 24.9593 3.43812 24.9626 3.41301C24.966 3.3879 24.9743 3.36369 24.9872 3.34176C25 3.31983 25.0171 3.30061 25.0375 3.2852C25.0579 3.26979 25.0812 3.25849 25.106 3.25195L26.4289 2.90264C26.479 2.88946 26.5323 2.89642 26.5772 2.92199C26.6221 2.94756 26.6548 2.98966 26.6683 3.03902C26.6817 3.08838 26.6747 3.14097 26.6488 3.18524C26.6229 3.22951 26.5802 3.26183 26.5301 3.2751Z" fill="white"/>
<path d="M26.7313 4.00182L24.6526 4.55082C24.6024 4.56406 24.549 4.55712 24.5041 4.53154C24.4591 4.50597 24.4263 4.46384 24.4129 4.41444C24.3995 4.36503 24.4065 4.31239 24.4325 4.2681C24.4584 4.22381 24.5012 4.19149 24.5513 4.17825L26.6301 3.62925C26.6802 3.61601 26.7336 3.62295 26.7785 3.64852C26.8235 3.6741 26.8563 3.71622 26.8697 3.76563C26.8831 3.81503 26.8761 3.86767 26.8501 3.91197C26.8242 3.95626 26.7815 3.98858 26.7313 4.00182Z" fill="white"/>
<path d="M25.9896 5.00957L24.8558 5.30897C24.831 5.31556 24.8051 5.31725 24.7796 5.31396C24.7541 5.31068 24.7296 5.30247 24.7073 5.28982C24.685 5.27717 24.6655 5.26031 24.6499 5.24022C24.6342 5.22013 24.6227 5.1972 24.6161 5.17273C24.6094 5.14826 24.6077 5.12274 24.611 5.09762C24.6144 5.0725 24.6227 5.04828 24.6356 5.02635C24.6485 5.00441 24.6656 4.98518 24.686 4.96977C24.7064 4.95435 24.7296 4.94305 24.7545 4.9365L25.8884 4.63709C25.9132 4.63052 25.9391 4.62884 25.9646 4.63213C25.99 4.63542 26.0146 4.64364 26.0369 4.65629C26.0591 4.66895 26.0787 4.68581 26.0943 4.7059C26.1099 4.72599 26.1214 4.74893 26.1281 4.7734C26.1347 4.79786 26.1364 4.82338 26.1331 4.84849C26.1297 4.87361 26.1214 4.89782 26.1085 4.91975C26.0956 4.94168 26.0785 4.9609 26.0581 4.97632C26.0377 4.99173 26.0145 5.00302 25.9896 5.00957Z" fill="white"/>
<path d="M6.92536 5.76331L7.60685 6.92685L6.63562 6.81142L6.25141 7.69796L5.46875 6.36213L6.92536 5.76331Z" fill="#01C36D"/>
<path d="M4.13376 5.02112L2.95312 5.6928L3.85271 6.07158L3.73578 7.02874L5.09131 6.25752L4.13376 5.02112Z" fill="#01C36D"/>
<path d="M7.19413 5.22085C7.11401 5.51555 6.94702 5.78021 6.71428 5.98137C6.48155 6.18254 6.19351 6.31116 5.88661 6.35098C5.57971 6.3908 5.26772 6.34003 4.99009 6.20509C4.71246 6.07015 4.48166 5.8571 4.32688 5.59288C4.17211 5.32866 4.1003 5.02513 4.12054 4.72069C4.14078 4.41624 4.25216 4.12455 4.4406 3.8825C4.62903 3.64044 4.88606 3.45889 5.17918 3.36081C5.4723 3.26273 5.78835 3.25252 6.08736 3.33148C6.28592 3.38387 6.47206 3.47431 6.63515 3.59763C6.79825 3.72095 6.93509 3.87472 7.03787 4.05018C7.14065 4.22563 7.20735 4.41932 7.23416 4.62019C7.26097 4.82106 7.24737 5.02516 7.19413 5.22085Z" fill="url(#paint3_linear_1_521)"/>
<path d="M5.38407 5.36016C5.35879 5.36012 5.33394 5.35366 5.31192 5.34141C5.2899 5.32915 5.27146 5.31152 5.25837 5.2902L4.94293 4.77433C4.93299 4.75806 4.92639 4.74002 4.92351 4.72123C4.92064 4.70245 4.92155 4.68329 4.92619 4.66485C4.93083 4.64641 4.93911 4.62906 4.95055 4.61377C4.962 4.59849 4.97639 4.58557 4.9929 4.57577C5.00941 4.56596 5.02771 4.55946 5.04677 4.55663C5.06583 4.5538 5.08527 4.55469 5.10398 4.55927C5.12268 4.56384 5.1403 4.572 5.1558 4.58328C5.17131 4.59456 5.18441 4.60874 5.19436 4.62501L5.42983 5.01019L6.33333 4.40554C6.34927 4.39485 6.3672 4.38736 6.38608 4.3835C6.40496 4.37965 6.42443 4.37949 6.44337 4.38306C6.46231 4.38662 6.48035 4.39382 6.49646 4.40426C6.51258 4.4147 6.52645 4.42816 6.53728 4.44388C6.54811 4.45961 6.55569 4.47728 6.55959 4.49589C6.56349 4.5145 6.56363 4.53369 6.56 4.55236C6.55637 4.57102 6.54905 4.5888 6.53845 4.60467C6.52785 4.62055 6.51417 4.63421 6.49821 4.64487L5.46652 5.33521C5.44218 5.35145 5.41347 5.36015 5.38407 5.36016Z" fill="white"/>
<path d="M6.05632 11.0289H27.7723C28.0318 11.0289 28.2806 11.1305 28.464 11.3113C28.6475 11.4921 28.7505 11.7374 28.7505 11.9931V26.3907C28.7505 26.6464 28.6475 26.8917 28.464 27.0725C28.2806 27.2533 28.0318 27.3549 27.7723 27.3549H6.05632C5.79689 27.3549 5.54808 27.2533 5.36463 27.0725C5.18118 26.8917 5.07812 26.6464 5.07812 26.3907V11.9931C5.07813 11.7374 5.18118 11.4921 5.36463 11.3113C5.54808 11.1305 5.79689 11.0289 6.05632 11.0289Z" fill="#1B3C37"/>
<path d="M10.085 14.205C10.085 14.4593 10.0085 14.7078 9.86523 14.9192C9.72191 15.1306 9.51822 15.2953 9.2799 15.3926C9.04159 15.4899 8.77935 15.5154 8.52635 15.4658C8.27336 15.4162 8.04096 15.2938 7.85856 15.114C7.67616 14.9342 7.55195 14.7052 7.50162 14.4558C7.4513 14.2065 7.47713 13.948 7.57584 13.7131C7.67456 13.4782 7.84172 13.2774 8.0562 13.1362C8.27068 12.9949 8.52284 12.9196 8.7808 12.9196C9.1267 12.9196 9.45842 13.055 9.70301 13.2961C9.9476 13.5371 10.085 13.8641 10.085 14.205Z" fill="#1B3C37"/>
<path d="M19.2306 17.4274H7.47656V18.3272H19.2306V17.4274Z" fill="#1B3C37"/>
<path d="M19.2306 19.5289H7.47656V20.4288H19.2306V19.5289Z" fill="#1B3C37"/>
<path d="M19.2306 21.6461H7.47656V22.5459H19.2306V21.6461Z" fill="#1B3C37"/>
<path d="M19.2306 23.6774H7.47656V24.5772H19.2306V23.6774Z" fill="#1B3C37"/>
<path d="M25.8723 27.428L24.605 24.9847L22.1094 26.2008L24.3755 19.4508L28.1384 20.678L25.8723 27.428Z" fill="#01A059"/>
<path d="M32.071 27.428L33.338 24.9847L35.8338 26.2008L33.5677 19.4508L29.8047 20.678L32.071 27.428Z" fill="#01A059"/>
<path d="M35.5975 15.4123C35.5975 19.0153 32.6341 21.9362 28.9785 21.9362C25.3229 21.9362 22.3594 19.0153 22.3594 15.4123C22.3594 11.8092 25.3229 8.88831 28.9785 8.88831C32.6341 8.88831 35.5975 11.8092 35.5975 15.4123Z" fill="url(#paint4_linear_1_521)"/>
<path d="M34.0639 15.4174C34.0639 18.1862 31.7865 20.4308 28.9773 20.4308C26.1681 20.4308 23.8906 18.1862 23.8906 15.4174C23.8906 12.6485 26.1681 10.4039 28.9773 10.4039C31.7865 10.4039 34.0639 12.6485 34.0639 15.4174Z" fill="url(#paint5_linear_1_521)"/>
<path d="M28.9715 11.7555L30.0515 13.9124L32.4667 14.2583L30.7191 15.9372L31.1316 18.3079L28.9715 17.1886L26.8115 18.3079L27.2239 15.9372L25.4766 14.2583L27.8915 13.9124L28.9715 11.7555Z" fill="url(#paint6_linear_1_521)"/>
<path d="M37.3612 12.8178L37.347 12.814C35.8995 11.9586 35.8265 10.2686 36.2465 8.72361C37.8998 8.54632 38.6669 7.95862 38.6669 7.95862L38.6812 7.96238L38.6956 7.96615C38.6956 7.96615 39.0621 8.85326 40.4039 9.82152C39.9839 11.3666 39.063 12.794 37.3756 12.8215L37.3612 12.8178Z" fill="#1B3C37"/>
<path d="M37.6243 11.23C37.5985 11.23 37.5732 11.2234 37.5509 11.2107C37.5286 11.198 37.51 11.1797 37.4972 11.1577L37.0821 10.4492C37.0627 10.416 37.0574 10.3765 37.0675 10.3395C37.0776 10.3025 37.1022 10.2709 37.1358 10.2518C37.1695 10.2326 37.2095 10.2274 37.2471 10.2373C37.2847 10.2472 37.3167 10.2714 37.3362 10.3046L37.6779 10.8878L38.9884 10.1421C39.0051 10.1326 39.0235 10.1264 39.0426 10.1239C39.0617 10.1214 39.0811 10.1227 39.0998 10.1276C39.1184 10.1325 39.1358 10.141 39.1511 10.1526C39.1664 10.1641 39.1792 10.1785 39.1888 10.195C39.1985 10.2114 39.2047 10.2296 39.2072 10.2484C39.2098 10.2672 39.2085 10.2864 39.2035 10.3047C39.1985 10.323 39.1899 10.3402 39.1782 10.3553C39.1665 10.3704 39.1518 10.383 39.1352 10.3925L37.6976 11.2106C37.6753 11.2233 37.65 11.23 37.6243 11.23Z" fill="white"/>
<defs>
<linearGradient id="paint0_linear_1_521" x1="33.0929" y1="5.53674" x2="33.0929" y2="7.59905" gradientUnits="userSpaceOnUse">
<stop stop-color="#01C36D"/>
<stop offset="0.0001" stop-color="#01C16C"/>
<stop offset="1" stop-color="#019C57"/>
</linearGradient>
<linearGradient id="paint1_linear_1_521" x1="25.8221" y1="0.942993" x2="25.8221" y2="6.34752" gradientUnits="userSpaceOnUse">
<stop stop-color="#01C36D"/>
<stop offset="0.0001" stop-color="#01C16C"/>
<stop offset="1" stop-color="#019C57"/>
</linearGradient>
<linearGradient id="paint2_linear_1_521" x1="26.4117" y1="0.942993" x2="26.4117" y2="2.24682" gradientUnits="userSpaceOnUse">
<stop stop-color="#01C36D"/>
<stop offset="0.0001" stop-color="#01C16C"/>
<stop offset="1" stop-color="#019C57"/>
</linearGradient>
<linearGradient id="paint3_linear_1_521" x1="5.83334" y1="3.27893" x2="5.83334" y2="6.36418" gradientUnits="userSpaceOnUse">
<stop stop-color="#01C36D"/>
<stop offset="0.0001" stop-color="#01C16C"/>
<stop offset="1" stop-color="#019C57"/>
</linearGradient>
<linearGradient id="paint4_linear_1_521" x1="29.617" y1="8.88831" x2="29.617" y2="21.9362" gradientUnits="userSpaceOnUse">
<stop stop-color="#01C36D"/>
<stop offset="0.0001" stop-color="#01C16C"/>
<stop offset="1" stop-color="#019C57"/>
</linearGradient>
<linearGradient id="paint5_linear_1_521" x1="23.8906" y1="15.4174" x2="34.0639" y2="15.4174" gradientUnits="userSpaceOnUse">
<stop stop-color="white"/>
<stop offset="1" stop-color="#E6F3FB"/>
</linearGradient>
<linearGradient id="paint6_linear_1_521" x1="29.3088" y1="11.7555" x2="29.3088" y2="18.3079" gradientUnits="userSpaceOnUse">
<stop stop-color="#01C36D"/>
<stop offset="0.0001" stop-color="#01C16C"/>
<stop offset="1" stop-color="#019C57"/>
</linearGradient>
</defs>
</svg>
