<svg width="22" height="22" viewBox="0 0 22 22" fill="none" xmlns="http://www.w3.org/2000/svg">
<path d="M18.0875 6.36722C15.5862 2.51098 10.4792 1.36453 6.51879 3.76165C2.66256 6.15877 1.41189 11.3699 3.91323 15.2261L4.12167 15.5388L3.28789 18.6655L6.41457 17.8317L6.72724 18.0401C8.08213 18.7697 9.54125 19.1866 11.0004 19.1866C12.5637 19.1866 14.127 18.7697 15.4819 17.9359C19.3382 15.4346 20.4846 10.3277 18.0875 6.36722ZM15.8988 14.3924C15.4819 15.0177 14.9608 15.4346 14.2313 15.5388C13.8144 15.5388 13.2933 15.7472 11.2088 14.9135C9.43702 14.0797 7.97791 12.7248 6.93568 11.1615C6.31035 10.4319 5.99768 9.49389 5.89346 8.55589C5.89346 7.72211 6.20613 6.99255 6.72724 6.47144C6.93568 6.26299 7.14413 6.15877 7.35257 6.15877H7.87369C8.08213 6.15877 8.29058 6.15877 8.3948 6.57566C8.60324 7.09677 9.12436 8.34744 9.12436 8.45167C9.22858 8.55589 9.22858 8.76434 9.12436 8.86856C9.22858 9.077 9.12436 9.28545 9.02013 9.38967C8.91591 9.49389 8.81169 9.70234 8.70747 9.80656C8.49902 9.91078 8.3948 10.1192 8.49902 10.3277C8.91591 10.953 9.43702 11.5783 9.95814 12.0995C10.5835 12.6206 11.2088 13.0375 11.9384 13.3501C12.1468 13.4543 12.3553 13.4544 12.4595 13.2459C12.5637 13.0375 13.0848 12.5163 13.2933 12.3079C13.5017 12.0995 13.6059 12.0995 13.8144 12.2037L15.4819 13.0375C15.6904 13.1417 15.8988 13.2459 16.003 13.3501C16.1073 13.6628 16.1073 14.0797 15.8988 14.3924Z" fill="#EBECEC" fill-opacity="0.8"/>
</svg>
